<svg xmlns="http://www.w3.org/2000/svg" viewBox="0 0 164.3 137" enable-background="new 0 0 164.3 137"><style type="text/css">.st0{fill:#BD83CA;} .st1{fill:#5A2A7C;}</style><g id="XMLID_40_"><path id="XMLID_45_" d="M158.8 40.9H5.6c-1.3 0-2.3-1-2.3-2.3 0-1.3 1-2.3 2.3-2.3h153.2c1.3 0 2.3 1 2.3 2.3 0 1.3-1.1 2.3-2.3 2.3z" class="st0"/><path id="XMLID_44_" d="M55.5 134.1c-1.3 0-2.3-1-2.3-2.3V38.6c0-1.3 1-2.3 2.3-2.3s2.3 1 2.3 2.3v93.2c.1 1.3-1 2.3-2.3 2.3z" class="st0"/><path id="XMLID_41_" d="M145.5 134.1H18.9c-8.6 0-15.6-7-15.6-15.6V18.6C3.3 10 10.3 3 18.9 3h126.5C154 3 161 10 161 18.6v99.9c.1 8.6-6.9 15.6-15.5 15.6zM18.9 7.6c-6.1 0-11 4.9-11 11v99.9c0 6.1 4.9 11 11 11h126.5c6.1 0 11-4.9 11-11V18.6c0-6.1-4.9-11-11-11H18.9z" class="st1"/></g></svg>